<svg width="11" height="11" viewBox="0 0 11 11" fill="none" xmlns="http://www.w3.org/2000/svg">
<path d="M10.9712 1.04517V10.3733C10.9712 10.5295 10.9165 10.6624 10.8071 10.7717C10.6978 10.8967 10.5571 10.9592 10.3853 10.9592H7.71338V6.8811H9.07275L9.28369 5.31079H7.71338V4.30298C7.71338 4.03735 7.76025 3.84985 7.854 3.74048C7.979 3.59985 8.18994 3.52954 8.48682 3.52954H9.33057V2.09985C9.00244 2.0686 8.59619 2.05298 8.11182 2.05298C7.50244 2.05298 7.01025 2.23267 6.63525 2.59204C6.26025 2.95142 6.07275 3.46704 6.07275 4.13892V5.31079H4.71338V6.8811H6.07275V10.9592H1.05713C0.885254 10.9592 0.744629 10.8967 0.635254 10.7717C0.525879 10.6624 0.471191 10.5295 0.471191 10.3733V1.04517C0.471191 0.873291 0.525879 0.732666 0.635254 0.623291C0.744629 0.513916 0.885254 0.459229 1.05713 0.459229H10.3853C10.5415 0.459229 10.6743 0.513916 10.7837 0.623291C10.9087 0.732666 10.9712 0.873291 10.9712 1.04517Z" fill="#fff2d8"/>
</svg>
