<svg width="16" height="16" viewBox="0 0 16 16" fill="none" xmlns="http://www.w3.org/2000/svg">
<path fill-rule="evenodd" clip-rule="evenodd" d="M8 13C8 13 12 7.77361 12 5.36364C12 2.95367 10.2091 1 8 1C5.79086 1 4 2.95367 4 5.36364C4 7.77361 8 13 8 13ZM8 7C9.10457 7 10 6.10457 10 5C10 3.89543 9.10457 3 8 3C6.89543 3 6 3.89543 6 5C6 6.10457 6.89543 7 8 7Z" fill="#FF6194"/>
<path d="M9.55291 12C10.959 12.0639 12.1801 12.2123 12.9888 12.4175C13.7975 12.6227 14.1387 12.8708 13.9487 13.1155C13.7587 13.3602 13.0505 13.5848 11.9561 13.7475C10.8617 13.9103 9.45565 14 8 14C6.54436 14 5.13835 13.9103 4.04394 13.7475C2.94952 13.5848 2.24135 13.3602 2.05135 13.1155C1.86135 12.8708 2.20248 12.6227 3.01119 12.4175C3.81991 12.2123 5.04104 12.0639 6.44709 12" stroke="#914B6A"/>
</svg>
