<svg width="434" height="417" viewBox="0 0 434 417" fill="none" xmlns="http://www.w3.org/2000/svg">
<g clip-path="url(#clip0)">
<path d="M97.8 152.1H86.9V162.9H76V173.8H65.2V184.6H76H86.9V173.8H97.8V162.9H108.6V152.1V141.2H97.8V152.1Z" fill="#D7BCDD"/>
<path d="M86.9 260.7V271.5H97.8V260.7V249.8H86.9V260.7Z" fill="#D7BCDD"/>
<path d="M86.9 184.6H76V195.5H65.2H54.3H43.4H32.6V206.4H43.4H54.3H65.2H76H86.9H97.8V195.5V184.6V173.8H86.9V184.6Z" fill="#54E0DB"/>
<path d="M97.8 97.8H86.9V108.7H97.8V97.8Z" fill="#FF6194"/>
<path d="M97.8 86.9V76H86.9V65.2H76H65.2V54.3H54.3H43.4H32.6H21.7V65.2V76V86.9V97.8H32.6V86.9H43.5V97.8H32.6V108.7V119.6H43.5V130.5H54.4V141.4H65.3V130.5H76H86.9V119.6H97.8V108.7H86.9V97.8H76V86.9H86.9V97.8H97.8V108.7H108.7V97.8V86.9H97.8ZM54.3 108.6H65.2V119.5H54.3V108.6Z" fill="#D7BCDD"/>
<path d="M97.8 32.6V21.7H86.9H76H65.2H54.3V10.9H43.4V0H32.6H21.7H10.9H0V10.9H10.9V21.7V32.6V37.4V43.4V54.3V65.2V76H21.7V65.2V54.3H32.6H43.4H54.3H65.2V65.2H76H86.9V76H97.8V86.9H108.6V76V65.2V54.3V43.4V37.4V32.6H97.8Z" fill="#FF6194"/>
<path d="M86.9 271.5H76V282.4H86.9H97.8V271.5H86.9Z" fill="#233441"/>
<path d="M86.9 206.4H76H65.2H54.3H43.4H32.6V217.2V228.1V239V249.8H43.4V239V228.1H54.3H65.2H76H86.9V239V249.8H97.8V239V228.1V217.2V206.4H86.9Z" fill="#233441"/>
<path d="M76 130.3H65.2V141.2H54.3V130.3H43.4H32.6H21.7V141.2H32.6V152.1H43.4H54.3V162.9V173.8V184.6H65.2V173.8H76V162.9H86.9V152.1H97.8V141.2H108.6V130.3H97.8H86.9H76Z" fill="#54E0DB"/>
<path d="M86.9 86.9H76V97.8H86.9V86.9Z" fill="#233441"/>
<path d="M65.2 108.6H54.3V119.5H65.2V108.6Z" fill="#FF6194"/>
<path d="M54.3 195.5H65.2H76V184.6H65.2H54.3V173.8V162.9V152.1H43.4H32.6H21.7H10.9H0V162.9V173.8V184.6H10.9V195.5H21.7H32.6H43.4H54.3Z" fill="#233441"/>
<path d="M32.6 260.7V271.5H43.4V260.7V249.8H32.6V260.7Z" fill="#D7BCDD"/>
<path d="M43.5 86.9H32.6V97.8H43.5V86.9Z" fill="#233441"/>
<path d="M21.7 271.5V282.4H32.6H43.4V271.5H32.6H21.7Z" fill="#233441"/>
<path d="M32.6 141.2H21.7V152.1H32.6V141.2Z" fill="#D7BCDD"/>
<path d="M32.6 97.8H21.7V108.7H32.6V97.8Z" fill="#FF6194"/>
<path d="M10.9 184.6H0V195.5H10.9V184.6Z" fill="#D7BCDD"/>
</g>
<g clip-path="url(#clip1)">
<path d="M422.7 72.4V61.5H411.8V50.6H379.2V61.5H357.4V72.4H346.5V83.3H357.4V105H368.3V115.9H379.2V126.8H390V115.9H411.8V105H422.7V94.2H433.6V72.4H422.7Z" fill="#D7BCDD"/>
<path d="M422.7 159.5V170.4V181.3V192.2V203.1H433.6V192.2V181.3V170.4V159.5V148.6H422.7V159.5Z" fill="#D7BCDD"/>
<path d="M422.7 246.7H411.8V257.6H422.7V246.7Z" fill="#D7BCDD"/>
<path d="M422.7 83.3H411.8V94.2H422.7V83.3Z" fill="#FF6194"/>
<path d="M400.9 257.6V268.5H411.8H422.7V257.6H411.8H400.9Z" fill="#233441"/>
<path d="M411.8 72.4H400.9V83.3H411.8V72.4Z" fill="#233441"/>
<path d="M390.1 94.2H379.2V105.1H390.1V94.2Z" fill="#FF6194"/>
<path d="M368.3 246.7H357.4V257.6H368.3V246.7Z" fill="#D7BCDD"/>
<path d="M422.7 181.3H357.4V246.7H368.3V203.1H411.8V246.7H422.7V181.3Z" fill="#54E0DB"/>
<path d="M368.3 159.5H379.2H390H400.9H411.8H422.7V148.6H411.8H400.9H390H379.2H368.3H357.4V159.5H368.3Z" fill="#FF6194"/>
<path d="M368.3 83.3V72.4H357.4V83.3H368.3Z" fill="#233441"/>
<path d="M346.5 257.6V268.5H357.4H368.3V257.6H357.4H346.5Z" fill="#233441"/>
<path d="M422.8 159.5H357.4V181.3H422.8V159.5Z" fill="#233441"/>
<path d="M433.6 126.8H422.7V115.9H390V126.8H379.2V115.9H346.5V126.8H357.4V148.6H433.6V126.8Z" fill="#233441"/>
<path d="M357.4 83.3H346.5V94.2H357.4V83.3Z" fill="#FF6194"/>
<path d="M433.6 39.7V17.9H422.7V7H390H357.4V17.9H346.5V28.8H335.6V39.7V72.4H357.4V61.5H379.2V50.6H390H411.8V61.5H422.7V72.4H433.6V39.7Z" fill="#FF6194"/>
<path d="M324.7 126.8H335.6H346.5V115.9H335.6H313.8V126.8" fill="#D7BCDD"/>
<path d="M357.4 126.8H302.9V181.3H357.4V126.8Z" fill="white"/>
<path d="M324.7 137.7H313.8V148.6H324.7V137.7Z" fill="#233441"/>
<path d="M302.9 137.7H292V148.6H302.9V137.7Z" fill="#D7BCDD"/>
<path d="M346.5 159.5H335.6V170.4H346.5V159.5Z" fill="#233441"/>
</g>
<path d="M230.988 323.25V333.633H241.371V323.25V312.767V302.383H230.988V312.767V312.867V323.25Z" fill="#D7BCDD"/>
<path d="M220.606 364.883V375.267V385.75V396.133H230.988V385.75V375.267V364.883H220.606Z" fill="#D7BCDD"/>
<path d="M168.494 375.267V385.75V396.133H178.876V385.75V375.267V364.883H168.494V375.267Z" fill="#D7BCDD"/>
<path d="M168.494 302.383H158.112V333.633H168.494V302.383Z" fill="#D7BCDD"/>
<path d="M210.124 271.133H220.606V260.75H230.988V219.117H220.606V208.633H199.741V198.25H178.876V208.633H158.112V239.883H168.494V250.367V260.75H178.876V271.133H189.359V281.617H210.124V271.133Z" fill="#D7BCDD"/>
<path d="M251.853 333.633V344.017H262.235V333.633V323.25H251.853H241.371V333.633H251.853Z" fill="white"/>
<path d="M241.371 333.633H230.988V344.017H241.371V333.633Z" fill="white"/>
<path d="M230.988 198.25V208.633V219.117V229.5V239.883V250.367H241.371H251.853V239.883H262.235V229.5H251.853V219.117H241.371V208.633V198.25V187.867V177.383H230.988V187.867V198.25Z" fill="#233441"/>
<path d="M230.988 396.133H220.606V406.517H230.988V396.133Z" fill="#FF6194"/>
<path d="M230.988 239.883H220.606V250.267H230.988V239.883Z" fill="#FF6194"/>
<path d="M210.124 406.517V417H220.606H230.988V406.517H220.606H210.124Z" fill="#233441"/>
<path d="M220.506 229.5H210.124V239.883H220.506V229.5Z" fill="#233441"/>
<path d="M199.741 260.75V250.367H189.359V260.75H199.741Z" fill="#FF6194"/>
<path d="M168.494 406.517H178.876V396.133H168.494V406.517Z" fill="#FF6194"/>
<path d="M230.988 323.25H220.606H210.124H199.741H189.359H178.876H173.885H168.494V333.633V344.017H178.876V333.633H189.359V344.017H199.741V333.633H210.124V344.017H220.606V333.633H230.988V323.25Z" fill="white"/>
<path d="M230.988 281.617V271.133H220.606H210.124V281.617H199.741H189.359V271.133H180.873H174.883H168.494V281.617H158.112V292V302.383H168.494V312.867V315.762V323.25H178.876V315.762V312.867V302.383H189.359V292H199.741H210.124V302.383H220.606V312.867V317.859V323.25H230.988V317.859V312.867V302.383H241.371V292V281.617H230.988Z" fill="#FF6194"/>
<path d="M189.359 302.383V312.867V314.764V323.25H199.741H210.124V314.764V312.867V302.383H199.741H189.359Z" fill="#FF6194"/>
<path d="M178.876 229.5H168.494V239.883H178.876V229.5Z" fill="#233441"/>
<path d="M168.494 406.517H158.112V417H168.494H178.876V406.517H168.494Z" fill="#233441"/>
<path d="M272.618 333.633V323.25H262.235V333.633V344.017H251.853V333.633H241.371V344.017H230.988V333.633H220.606V344.017H210.124V333.633H199.741V344.017H189.359V333.633H178.876V344.017H168.494V333.633H158.112V344.017H147.629V333.633H137.247V344.017H126.865V333.633V323.25H116.382V333.633H106V344.017V354.5V364.883V375.267V385.75V396.133V406.517V417H116.382H126.865V406.517V396.133V385.75V375.267V364.883H137.247H147.629H158.112H168.494H178.876H185.865H189.359H199.741H210.124H220.606H230.988H241.371H251.853H262.235V375.267V385.75V396.133V406.517V417H272.618H283V406.517V396.133V385.75V375.267V364.883V354.5V344.017V333.633H272.618Z" fill="#233441"/>
<path d="M168.494 239.883H158.112V250.267H168.494V239.883Z" fill="#FF6194"/>
<path d="M262.235 167H251.853H241.371V177.383V187.867V198.25V208.633V219.117H251.853V208.633V198.25H262.235H272.618V187.867V177.383V167H262.235Z" fill="#54E0DB"/>
<path d="M210.124 302.383V312.867V317.06V323.25H220.606V317.06V312.867V302.383H210.124Z" fill="#54E0DB"/>
<path d="M199.741 292H189.359V302.383H199.741H210.124V292H199.741Z" fill="#54E0DB"/>
<path d="M178.877 302.383V312.867V317.759V323.25H189.359V317.759V312.867V302.383H178.877Z" fill="#54E0DB"/>
<path d="M230.988 177.383H158.112V208.633H178.876V198.25H199.741V208.633H220.606V219.117H230.988V177.383Z" fill="#54E0DB"/>
<path d="M220.606 167H210.124H199.741H189.359H188.86H178.876H168.494H158.112V177.383H147.629V187.867V198.25V208.633V219.117H137.247V229.5H126.865V239.883H137.247V250.367H147.629H158.112V239.883V229.5V219.117V208.633V198.25V187.867V177.383H168.494H178.876H188.86H189.359H199.741H210.124H220.606H230.988V167H220.606Z" fill="#233441"/>
<path d="M126.865 344.017H137.247V333.633H147.629V344.017H158.112V333.633V323.25H147.629H137.247H126.865V333.633V344.017Z" fill="white"/>
<defs>
<clipPath id="clip0">
<rect width="108.6" height="282.4" fill="white"/>
</clipPath>
<clipPath id="clip1">
<rect width="141.6" height="261.5" fill="white" transform="translate(292 7)"/>
</clipPath>
</defs>
</svg>
