<svg width="434" height="418" viewBox="0 0 434 418" fill="none" xmlns="http://www.w3.org/2000/svg">
<path d="M208.1 256.6H218.8V267.3H229.6V278H240.3V267.3H261.7V256.6H272.5V245.8H283.2V224.4H272.5V213.6H261.7V202.9H240.3V192.2H197.4V235.1H208.1V256.6Z" fill="#D7BCDD"/>
<path d="M251 406.8V417.5H261.7H272.5V406.8H261.7H251Z" fill="#FF6194"/>
<path d="M154.4 310.2H143.7V320.9H154.4V310.2Z" fill="#54E0DB"/>
<path d="M272.5 310.2V320.9V331.7V342.4V353.1H283.2V342.4V331.7V320.9V310.2V299.5H272.5V310.2Z" fill="#D7BCDD"/>
<path d="M283.2 213.6H272.5V224.3H283.2V213.6Z" fill="#233441"/>
<path d="M272.5 170.7V160H261.7H251H240.3H229.6H218.8H208.1H197.4V170.7H186.6V181.4V192.2V202.9V213.6H197.4V202.9V192.2H208.1H218.8H229.6H240.3V202.9H251H261.7V213.6H272.5H283.2V202.9V192.2V181.4V170.7H272.5Z" fill="#233441"/>
<path d="M261.7 342.4H251H240.3H229.6H218.8H208.1V353.1V363.9V374.6V385.3V396.1V406.8H218.8V396.1V385.3V374.6V363.9H229.6H240.3H251H261.7V374.6V385.3V396.1V406.8H272.5V396.1V385.3V374.6V363.9V353.1V342.4H261.7Z" fill="#233441"/>
<path d="M240.3 267.3V278H229.6V267.3H186.6V278H208.1V299.5H283.2V278H272.5V267.3H240.3Z" fill="#FF6194"/>
<path d="M272.4 235.1H261.7V245.8H272.4V235.1Z" fill="#FF6194"/>
<path d="M261.7 224.4H251V235.1H261.7V224.4Z" fill="#233441"/>
<path d="M229.6 256.6H240.3V245.8H229.6V256.6Z" fill="#FF6194"/>
<path d="M229.6 342.4H240.3H251H261.7H272.5V331.7V320.9V310.2V299.5H261.7H251H240.3H229.6H218.8H208.1V310.2V320.9V331.7V342.4H218.8H229.6Z" fill="#54E0DB"/>
<path d="M218.8 224.4H208.1V235.1H218.8V224.4Z" fill="#233441"/>
<path d="M197.4 406.8V417.5H208.1H218.8V406.8H208.1H197.4Z" fill="#FF6194"/>
<path d="M208.1 235.1H197.4V245.8H208.1V235.1Z" fill="#FF6194"/>
<path d="M186.6 267.3H175.9V256.6H165.2V267.3V278H175.9H186.6V267.3Z" fill="#D7BCDD"/>
<path d="M165.1 288.7H154.4V299.4H165.1V288.7Z" fill="#54E0DB"/>
<path d="M175.9 224.4V213.6H165.2V224.4H154.4H143.7V235.1H154.4V245.8V256.6H165.2H175.9H186.6V245.8V235.1V224.4H175.9Z" fill="#54E0DB"/>
<path d="M165.1 213.6H154.4V224.3H165.1V213.6Z" fill="#233441"/>
<path d="M165.2 213.6H175.9V202.9H165.2H154.4H143.7V213.6H154.4H165.2Z" fill="#FF6194"/>
<path d="M154.4 267.3H143.7V278H154.4V267.3Z" fill="#54E0DB"/>
<path d="M154.4 235.1H143.7V245.8H154.4V235.1Z" fill="#233441"/>
<path d="M143.7 245.8V235.1V224.4H154.4V213.6H143.7H133V224.4V235.1V245.8H143.7Z" fill="#FF6194"/>
<path d="M175.9 235.1H165.2V245.8H175.9V235.1Z" fill="#233441"/>
<path d="M110.9 73.7V62.9H99.8V52.1H55.5V41.4H44.4V52.1H33.3V84.4H44.4V106H55.5V127.5H66.6V138.3H88.8V127.5H99.8V106H110.9V95.2H122V73.7H110.9Z" fill="#D7BCDD"/>
<path d="M110.9 245.9H99.8V256.7H110.9V245.9Z" fill="#54E0DB"/>
<path d="M110.9 213.6H99.8V245.9H110.9V213.6Z" fill="#D7BCDD"/>
<path d="M110.9 181.3H99.8V192.1H110.9V181.3Z" fill="#54E0DB"/>
<path d="M110.9 84.4H99.8V95.2H110.9V84.4Z" fill="#FF6194"/>
<path d="M88.8 256.7V267.4H99.8H110.9V256.7H99.8H88.8Z" fill="#233441"/>
<path d="M99.9 73.7H88.8V84.5H99.9V73.7Z" fill="#233441"/>
<path d="M77.7 95.2H66.6V106H77.7V95.2Z" fill="#FF6194"/>
<path d="M55.5 245.9H44.4V256.7H55.5V245.9Z" fill="#54E0DB"/>
<path d="M55.5 213.6H44.4V245.9H55.5V213.6Z" fill="#D7BCDD"/>
<path d="M99.8 159.8V170.5H77.7V181.3H55.5V192.1H44.4V213.6H110.9V192.1H99.8V181.3H110.9V159.8H99.8Z" fill="#FF6194"/>
<path d="M55.5 181.3H44.4V192.1H55.5V181.3Z" fill="#54E0DB"/>
<path d="M55.5 84.4V73.7H44.4V84.4H55.5Z" fill="#233441"/>
<path d="M33.3 256.7V267.4H44.4H55.5V256.7H44.4H33.3Z" fill="#233441"/>
<path d="M110.9 116.7H105.4H99.8V127.5H88.8V138.3H77.7H66.6V149H77.7V159.8H88.8V149H99.8V138.3H110.9V127.5H122V116.7H110.9Z" fill="#FF6194"/>
<path d="M55.5 116.7H50.8H44.4H33.3V127.5H44.4V132.4V138.3V149H55.5V138.3H66.6V127.5H55.5V116.7Z" fill="#FF6194"/>
<path d="M44.4 84.4H33.3V95.2H44.4V84.4Z" fill="#FF6194"/>
<path d="M133.1 30.6H122V19.8H110.9V9H99.8H88.7H66.5H44.3V19.8H33.2V30.6H22.1V116.7H55.4V105.9H44.3V95.1H33.2V52H44.3V41.2H55.4V52H66.5H88.7H99.8V62.8H110.9V73.6H122V95.1H110.9V105.9H99.8V116.7H133.1V30.6Z" fill="#233441"/>
<path d="M66.6 149V138.3H55.5V149H44.4H33.3H22.2V138.3H11.1V149H0V159.8H11.1V165.2V170.5V181.3H22.2H33.3V170.5H44.4V181.3H51.5H55.5H66.6V170.5H55.5V159.8H66.6V170.5H77.7V159.8V155.4V149H66.6Z" fill="#233441"/>
<path d="M110.9 127.5V138.3H99.8V149H88.8V159.8H77.7V170.5H99.8V159.8H110.9V149H122V127.5H110.9Z" fill="#D7BCDD"/>
<path d="M77.7 170.5H66.6V181.3H77.7V170.5Z" fill="#D7BCDD"/>
<path d="M66.6 159.8H55.5V170.5H66.6V159.8Z" fill="#D7BCDD"/>
<path d="M33.3 138.3H22.2V149H33.3H44.4V138.3V127.5H33.3V138.3Z" fill="#D7BCDD"/>
<path d="M11.1 159.8H0V170.6H11.1V159.8Z" fill="#D7BCDD"/>
<path d="M376.6 66.7V55.6H365.1V44.5H342.2V33.4H319.3V44.5H296.4V77.8H307.9V66.7H319.4V77.8H307.9V100H319.4V111.1H330.9V122.2H353.8V111.1H365.3V100H376.6V88.9H388.1V66.7H376.6V66.7ZM342.2 100H330.7V88.9H342.2V100Z" fill="#D7BCDD"/>
<path d="M376.6 200H388.1V188.9H376.6V200Z" fill="#D7BCDD"/>
<path d="M388.1 166.7V155.6V144.5H376.6V155.6V166.7V177.8V188.9H388.1V177.8V166.7Z" fill="#D7BCDD"/>
<path d="M376.6 244.5H365.1V255.6H376.6V244.5Z" fill="#54E0DB"/>
<path d="M365.1 222.3V233.4V244.5H376.6V233.4V222.3V211.1H365.1V222.3Z" fill="#D7BCDD"/>
<path d="M376.6 77.8H365.1V88.9H376.6V77.8Z" fill="#FF6194"/>
<path d="M369.8 255.6H365.1H353.7V266.7H365.1H369.8H376.6V255.6H369.8Z" fill="#233441"/>
<path d="M376.6 177.8H307.8V211.1H376.6V177.8Z" fill="#FF6194"/>
<path d="M365.2 66.7H353.7V77.8H365.2V66.7Z" fill="#233441"/>
<path d="M330.8 100H342.2V88.9H330.8V100Z" fill="#FF6194"/>
<path d="M307.8 166.7V177.8H365.1H376.6V166.7H307.8Z" fill="#54E0DB"/>
<path d="M376.6 122.3V111.1H353.7V122.3H330.8V111.1H284.9V122.3H307.8V166.7H376.6V144.5H388.1V122.3H376.6Z" fill="#233441"/>
<path d="M319.3 244.5H307.8V255.6H319.3V244.5Z" fill="#54E0DB"/>
<path d="M307.8 222.3V233.4V244.5H319.3V233.4V222.3V211.1H307.8V222.3Z" fill="#D7BCDD"/>
<path d="M319.3 66.7H307.8V77.8H319.3V66.7Z" fill="#233441"/>
<path d="M296.4 255.6V266.7H307.8H319.3V255.6H307.8H296.4Z" fill="#233441"/>
<path d="M307.9 77.8H296.4V88.9H307.9V77.8Z" fill="#FF6194"/>
<path d="M422.4 155.6V133.4H411V111.1V22.3H399.5V11.1H376.6V0H296.4V11.1H284.9V55.6H296.4V44.5H319.3V33.4H342.2V44.5H365.1V55.6H376.6V66.7H388.1V88.9H376.6V100H365.1V111.1H376.6V122.3H388.1V177.8H433.9V155.6H422.4Z" fill="#54E0DB"/>
<path d="M273.5 111.1V88.9H262V122.3H273.5H284.9V111.1H273.5Z" fill="#D7BCDD"/>
<path d="M273.5 77.8V66.7V55.6H262V66.7V77.8V88.9H273.5V77.8Z" fill="#233441"/>
<path d="M273.5 44.5H262V55.6H273.5V44.5Z" fill="#54E0DB"/>
</svg>
