<svg width="11" height="11" viewBox="0 0 11 11" fill="none" xmlns="http://www.w3.org/2000/svg">
<path d="M5.25 2.80469C4.76562 2.80469 4.3125 2.92969 3.89062 3.17969C3.48438 3.41406 3.15625 3.74219 2.90625 4.16406C2.67188 4.57031 2.55469 5.01562 2.55469 5.5C2.55469 5.98438 2.67188 6.4375 2.90625 6.85938C3.15625 7.26562 3.48438 7.59375 3.89062 7.84375C4.3125 8.07812 4.76562 8.19531 5.25 8.19531C5.73438 8.19531 6.17969 8.07812 6.58594 7.84375C7.00781 7.59375 7.33594 7.26562 7.57031 6.85938C7.82031 6.4375 7.94531 5.98438 7.94531 5.5C7.94531 5.01562 7.82031 4.57031 7.57031 4.16406C7.33594 3.74219 7.00781 3.41406 6.58594 3.17969C6.17969 2.92969 5.73438 2.80469 5.25 2.80469ZM5.25 7.25781C4.76562 7.25781 4.35156 7.08594 4.00781 6.74219C3.66406 6.39844 3.49219 5.98438 3.49219 5.5C3.49219 5.01562 3.66406 4.60156 4.00781 4.25781C4.35156 3.91406 4.76562 3.74219 5.25 3.74219C5.73438 3.74219 6.14844 3.91406 6.49219 4.25781C6.83594 4.60156 7.00781 5.01562 7.00781 5.5C7.00781 5.98438 6.83594 6.39844 6.49219 6.74219C6.14844 7.08594 5.73438 7.25781 5.25 7.25781ZM8.69531 2.6875C8.67969 2.85938 8.60938 3.00781 8.48438 3.13281C8.375 3.25781 8.23438 3.32031 8.0625 3.32031C7.89062 3.32031 7.74219 3.25781 7.61719 3.13281C7.49219 3.00781 7.42969 2.85938 7.42969 2.6875C7.42969 2.51562 7.49219 2.36719 7.61719 2.24219C7.74219 2.11719 7.89062 2.05469 8.0625 2.05469C8.23438 2.05469 8.38281 2.11719 8.50781 2.24219C8.63281 2.36719 8.69531 2.51562 8.69531 2.6875ZM10.4766 3.32031C10.4453 2.86719 10.375 2.47656 10.2656 2.14844C10.125 1.75781 9.90625 1.42188 9.60938 1.14062C9.32812 0.84375 8.99219 0.625 8.60156 0.484375C8.27344 0.375 7.88281 0.3125 7.42969 0.296875C6.99219 0.265625 6.26562 0.25 5.25 0.25C4.23438 0.25 3.5 0.265625 3.04688 0.296875C2.60938 0.3125 2.22656 0.375 1.89844 0.484375C1.50781 0.625 1.16406 0.84375 0.867188 1.14062C0.585938 1.42188 0.375 1.75781 0.234375 2.14844C0.125 2.47656 0.0546875 2.86719 0.0234375 3.32031C0.0078125 3.75781 0 4.48438 0 5.5C0 6.51562 0.0078125 7.25 0.0234375 7.70312C0.0546875 8.14062 0.125 8.52344 0.234375 8.85156C0.375 9.24219 0.585938 9.58594 0.867188 9.88281C1.16406 10.1641 1.50781 10.3672 1.89844 10.4922C2.22656 10.6172 2.60938 10.6875 3.04688 10.7031C3.5 10.7344 4.23438 10.75 5.25 10.75C6.26562 10.75 6.99219 10.7344 7.42969 10.7031C7.88281 10.6875 8.27344 10.625 8.60156 10.5156C8.99219 10.375 9.32812 10.1641 9.60938 9.88281C9.90625 9.58594 10.125 9.24219 10.2656 8.85156C10.375 8.52344 10.4375 8.14062 10.4531 7.70312C10.4844 7.25 10.5 6.51562 10.5 5.5C10.5 4.48438 10.4922 3.75781 10.4766 3.32031ZM9.35156 8.59375C9.16406 9.0625 8.82812 9.39844 8.34375 9.60156C8.09375 9.69531 7.67188 9.75781 7.07812 9.78906C6.75 9.80469 6.26562 9.8125 5.625 9.8125H4.875C4.25 9.8125 3.76562 9.80469 3.42188 9.78906C2.84375 9.75781 2.42188 9.69531 2.15625 9.60156C1.6875 9.41406 1.35156 9.07812 1.14844 8.59375C1.05469 8.32812 0.992188 7.90625 0.960938 7.32812C0.945312 6.98438 0.9375 6.5 0.9375 5.875V5.125C0.9375 4.5 0.945312 4.01562 0.960938 3.67188C0.992188 3.07812 1.05469 2.65625 1.14844 2.40625C1.33594 1.92188 1.67188 1.58594 2.15625 1.39844C2.42188 1.30469 2.84375 1.24219 3.42188 1.21094C3.76562 1.19531 4.25 1.1875 4.875 1.1875H5.625C6.25 1.1875 6.73438 1.19531 7.07812 1.21094C7.67188 1.24219 8.09375 1.30469 8.34375 1.39844C8.82812 1.58594 9.16406 1.92188 9.35156 2.40625C9.44531 2.65625 9.50781 3.07812 9.53906 3.67188C9.55469 4 9.5625 4.48438 9.5625 5.125V5.875C9.5625 6.5 9.55469 6.98438 9.53906 7.32812C9.50781 7.90625 9.44531 8.32812 9.35156 8.59375Z" fill="#FF6194"/>
</svg>
