
<svg xmlns="http://www.w3.org/2000/svg" width="281.959" height="40.039"><path fill="#595A5C" d="M44.426 6.389h5.116l5.743 15.581 5.614-15.581h5.05l-8.556 23.723-3.987.008zM67.956 6.389h4.707V30.12h-4.707zM75.527 6.461h10.584c4.532 0 7.783 2.724 7.783 6.465 0 3.412-1.221 5.528-4.68 6.449l5.649 10.745h-5.231l-5.231-9.869-4.06.005v9.864h-4.815V6.461zm4.815 4.272v5.164h5.148c2.13 0 2.993-1.226 2.993-2.972 0-1.44-1.681-2.192-3.27-2.192h-4.871zM93.359 6.389h20.264l-1.569 4.46h-6.08V30.12h-4.872V10.849h-6.137zM128.219 6.389h4.928v15.795c0 2.683-.643 4.493-2.062 5.88-1.588 1.552-4.155 2.393-7.263 2.393-5.777 0-9.257-2.94-9.257-7.787V6.389h4.932v15.989c0 2.295 1.896 3.498 4.527 3.498 1.832 0 4.194-.781 4.194-3.453V6.389zM142.677 6.389h3.89L156.9 30.12h-4.938l-2.409-5.275h-9.856l-2.298 5.275h-5.037l10.315-23.731zm1.997 7.105l-3.032 6.762h5.968l-2.936-6.762zM187.344 6.389h5.504l5.34 9.05 5.556-9.05h5.506l-8.601 14.096v9.635h-4.932v-9.635zM159.188 6.389h4.815v19.255h9.226l1.675 4.476h-15.716zM177.124 6.389h4.815v19.255h9.228l1.672 4.476h-15.715zM266.055 6.389h15.904l-1.633 4.373h-9.48v4.905h9.03v4.484h-9.03v5.537h9.495l1.618 4.432h-15.904zM218.057 6.389h4.816v19.255h9.226l1.673 4.476h-15.715zM235.572 6.389h4.707V30.12h-4.707zM242.573 6.389h5.117l5.74 15.581 5.613-15.581h5.051l-8.554 23.723-3.988.008z"/><path fill="#136AA2" d="M34.7 6.413c2.521 9.146-10.928 26.727-14.548 33.588C16.475 33.03 2.668 15.011 5.74 5.994A19.96 19.96 0 0 0 0 20.022C0 31.079 8.966 40.04 20.021 40.04c11.055 0 20.02-8.961 20.02-20.018A19.942 19.942 0 0 0 34.7 6.413m-9.236 14.089c2.464-5.18 5.959-10.928 6.058-16.863A19.905 19.905 0 0 0 20.021 0c-1.456 0-2.869.16-4.236.455.036.11.064.184.108.312 2.605 6.823 6.292 13.225 9.571 19.735"/></svg>
