<svg width="150" height="75" viewBox="0 0 150 75" fill="none" xmlns="http://www.w3.org/2000/svg">
<path d="M31.1334 30.83H33.4567L36.0646 37.9055L38.614 30.83H40.9073L37.0219 41.6029L35.2113 41.6065L31.1334 30.83ZM41.8187 30.83H43.9562V41.6065H41.8187V30.83ZM45.2568 30.8627H50.0631C52.1211 30.8627 53.5974 32.0997 53.5974 33.7985C53.5974 35.348 53.043 36.3089 51.4722 36.7271L54.0375 41.6065H51.662L49.2865 37.1249L47.4429 37.1272V41.6065H45.2563V30.8627H45.2568ZM47.4433 32.8027V35.1477H49.7811C50.7483 35.1477 51.1402 34.591 51.1402 33.7981C51.1402 33.1442 50.3769 32.8027 49.6553 32.8027H47.4433ZM53.3545 30.83H62.5566L61.8441 32.8554H59.0831V41.6065H56.8707V32.8554H54.0838L53.3545 30.83ZM69.1848 30.83H71.4227V38.0027C71.4227 39.2211 71.1307 40.043 70.4863 40.6729C69.7652 41.3777 68.5995 41.7596 67.1881 41.7596C64.5647 41.7596 62.9844 40.4245 62.9844 38.2234V30.83H65.2241V38.0908C65.2241 39.133 66.0851 39.6793 67.2798 39.6793C68.1118 39.6793 69.1844 39.3246 69.1844 38.1112V30.83H69.1848ZM75.7504 30.83H77.5169L82.2092 41.6065H79.9668L78.8728 39.2111H74.3971L73.3536 41.6065H71.0662L75.7504 30.83V30.83ZM76.6572 34.0565L75.2804 37.1272H77.9905L76.6572 34.0565V34.0565ZM96.0342 30.83H98.5336L100.959 34.9397L103.482 30.83H105.982L102.076 37.2312V41.6065H99.8365V37.2312L96.0342 30.83ZM83.2482 30.83H85.4348V39.5739H89.6244L90.385 41.6065H83.2482V30.83ZM91.3932 30.83H93.5797V39.5739H97.7703L98.5295 41.6065H91.3932V30.83ZM131.778 30.83H139L138.258 32.8158H133.953V35.0433H138.054V37.0795H133.953V39.5939H138.265L139 41.6065H131.778V30.83ZM109.981 30.83H112.168V39.5739H116.358L117.118 41.6065H109.981V30.83ZM117.935 30.83H120.073V41.6065H117.935V30.83ZM121.114 30.83H123.438L126.045 37.9055L128.594 30.83H130.887L127.003 41.6029L125.192 41.6065L121.114 30.83Z" fill="#595A5C"/>
<path d="M26.7167 30.8409C27.8615 34.9942 21.7542 42.978 20.1103 46.0936C18.4405 42.928 12.1706 34.7454 13.5657 30.6506C11.893 32.3487 10.9565 34.6374 10.9591 37.0209C10.9591 42.042 15.0306 46.1113 20.0508 46.1113C25.071 46.1113 29.1421 42.042 29.1421 37.0209C29.1451 34.7282 28.2784 32.5196 26.7167 30.8409V30.8409ZM22.5226 37.2389C23.6415 34.8866 25.2286 32.2764 25.2736 29.5812C23.7455 28.5034 21.9208 27.9261 20.0508 27.9287C19.3896 27.9287 18.748 28.0014 18.1272 28.1353C18.1436 28.1853 18.1563 28.2189 18.1763 28.277C19.3592 31.3754 21.0335 34.2826 22.5226 37.2389" fill="#136AA2"/>
</svg>
