<svg width="13" height="11" viewBox="0 0 13 11" fill="none" xmlns="http://www.w3.org/2000/svg">
<path d="M12.7064 3.77455C12.5055 3.99554 12.2778 4.18973 12.0368 4.35714C10.9185 5.11384 9.79347 5.87723 8.70196 6.66741C8.13946 7.08259 7.44303 7.59152 6.71312 7.59152H6.69972C5.96981 7.59152 5.27339 7.08259 4.71089 6.66741C3.61937 5.87054 2.49437 5.11384 1.38276 4.35714C1.13499 4.18973 0.907314 3.99554 0.706421 3.77455V9.09152C0.706421 9.6808 1.18856 10.1629 1.77785 10.1629H11.635C12.2243 10.1629 12.7064 9.6808 12.7064 9.09152V3.77455ZM12.7064 1.8058C12.7064 1.21652 12.2176 0.734375 11.635 0.734375H1.77785C1.06133 0.734375 0.706421 1.29688 0.706421 1.95312C0.706421 2.5625 1.38276 3.3192 1.85821 3.64062C2.89615 4.36384 3.94749 5.08705 4.98544 5.81696C5.42071 6.1183 6.15731 6.73438 6.69972 6.73438H6.71312C7.25553 6.73438 7.99214 6.1183 8.4274 5.81696C9.46535 5.08705 10.5167 4.36384 11.5613 3.64062C12.1506 3.23214 12.7064 2.5558 12.7064 1.8058Z" fill="#fff2d8"/>
</svg>
