<svg width="124" height="38" viewBox="0 0 124 38" fill="none" xmlns="http://www.w3.org/2000/svg">
<g clip-path="url(#clip0)">
<path d="M0 7.85219V38H2.27732V11.9789H2.44812L5.57943 29.6893H6.88889L10.8173 9.85822H10.9881L10.0202 37.083H12.9238V7.04977H8.65381L6.54729 23.4992H6.26263L3.98531 7.85219H0Z" fill="#233441"/>
<path d="M25.2213 1.94872L23.1717 0L19.4711 4.47059L21.0083 5.44495L25.2213 1.94872ZM22.8871 37.1403H25.449V7.85219H17.3646L15.3719 37.1403H17.4215L19.4141 25.6772H21.6915L22.8871 37.1403ZM22.6593 9.3997V23.4992C22.6593 23.6712 22.5455 23.7858 22.3747 23.7858H20.4959C20.3251 23.7858 20.2112 23.7285 20.2112 23.5566V9.3997C20.2112 9.22775 20.3251 9.11312 20.4959 9.11312H22.3747C22.6024 9.17044 22.6593 9.22775 22.6593 9.3997Z" fill="#233441"/>
<path d="M29.9467 37.1403H38.3159V34.5038L33.3058 33.7587L34.2167 7.85219H29.9467V37.1403Z" fill="#233441"/>
<path d="M48.0514 37.1403H50.6134V7.85219H42.5289L40.5363 37.1403H42.5858L44.5785 25.6772H46.8558L48.0514 37.1403ZM47.8237 9.3997V23.4992C47.8237 23.6712 47.7098 23.7858 47.539 23.7858H45.6602C45.4894 23.7858 45.3756 23.7285 45.3756 23.5566V9.3997C45.3756 9.22775 45.4894 9.11312 45.6602 9.11312H47.539C47.7098 9.17044 47.8237 9.22775 47.8237 9.3997Z" fill="#233441"/>
<path d="M57.3315 36.3379H66.6116V21.8944L61.6015 22.4676V24.7602L64.2773 24.8748L63.8218 32.8416C63.8218 33.0136 63.708 33.1282 63.4803 33.2428C63.2525 33.3575 63.0817 33.3575 62.9109 33.3575H59.6657C59.438 33.3575 59.2103 33.2428 59.0964 33.1282C58.8687 32.9563 58.7548 32.7843 58.7548 32.6124L57.9578 12.1508C57.9578 11.5777 58.1286 11.1192 58.4701 10.7753C58.7548 10.4314 59.2103 10.2594 59.8935 10.2594H62.854L64.1634 13.9849H66.0422V7.85219H56.5914L54.9972 10.0875V33.1282C54.9972 34.2172 55.2819 34.9623 55.6804 35.5354C56.1928 36.0513 56.7052 36.3379 57.3315 36.3379Z" fill="#233441"/>
<path d="M78.169 37.1403H80.7309V7.85219H72.6464L70.5969 37.1403H72.6464L74.6391 25.6772H76.9164L78.169 37.1403ZM77.9412 9.3997V23.4992C77.9412 23.6712 77.8273 23.7858 77.6565 23.7858H75.7778C75.607 23.7858 75.4931 23.7285 75.4931 23.5566V9.3997C75.4931 9.22775 75.607 9.11312 75.7778 9.11312H77.6565C77.8843 9.17044 77.9412 9.22775 77.9412 9.3997Z" fill="#233441"/>
<path d="M85.6841 37.1403H93.6547L94.0532 7.85219H89.8402V9.74359L90.6373 11.6923V35.0769L87.7906 34.8477L87.5629 29.1735L84.09 29.9759L85.6841 37.1403Z" fill="#233441"/>
<path d="M104.927 37.1403H107.489V7.85219H99.4049L97.4123 37.1403H99.4619L101.455 25.6772H103.732L104.927 37.1403ZM104.757 9.3997V23.4992C104.757 23.6712 104.643 23.7858 104.472 23.7858H102.593C102.422 23.7858 102.309 23.7285 102.309 23.5566V9.3997C102.309 9.22775 102.422 9.11312 102.593 9.11312H104.472C104.643 9.17044 104.757 9.22775 104.757 9.3997Z" fill="#233441"/>
<path d="M111.076 7.85219V38H113.354V11.9789H113.524L116.656 29.6893H117.965L121.893 9.91554H122.064L121.096 37.1403H124V7.04977H119.73L117.624 23.4992H117.339L115.062 7.9095L111.076 7.85219Z" fill="#233441"/>
</g>
<defs>
<clipPath id="clip0">
<rect width="124" height="38" fill="white"/>
</clipPath>
</defs>
</svg>
