<svg width="13" height="11" viewBox="0 0 13 11" fill="none" xmlns="http://www.w3.org/2000/svg">
<path d="M11.4646 3.37634C11.4802 3.43884 11.488 3.54041 11.488 3.68103C11.488 4.80603 11.2146 5.89197 10.6677 6.93884C10.1052 8.04822 9.31616 8.93103 8.30054 9.58728C7.19116 10.3217 5.91772 10.6888 4.48022 10.6888C3.10522 10.6888 1.84741 10.3217 0.706787 9.58728C0.878662 9.60291 1.07397 9.61072 1.29272 9.61072C2.43335 9.61072 3.45679 9.25916 4.36304 8.55603C3.81616 8.55603 3.33179 8.39978 2.90991 8.08728C2.50366 7.75916 2.22241 7.35291 2.06616 6.86853C2.22241 6.88416 2.37085 6.89197 2.51147 6.89197C2.73022 6.89197 2.94897 6.86853 3.16772 6.82166C2.60522 6.69666 2.13647 6.40759 1.76147 5.95447C1.38647 5.50134 1.19897 4.98572 1.19897 4.40759V4.36072C1.54272 4.56384 1.90991 4.67322 2.30054 4.68884C1.97241 4.45447 1.70679 4.15759 1.50366 3.79822C1.30054 3.43884 1.19897 3.04822 1.19897 2.62634C1.19897 2.18884 1.31616 1.77478 1.55054 1.38416C2.15991 2.14978 2.9021 2.75916 3.7771 3.21228C4.66772 3.66541 5.61304 3.91541 6.61304 3.96228C6.58179 3.77478 6.56616 3.58728 6.56616 3.39978C6.56616 2.96228 6.67554 2.55603 6.89429 2.18103C7.11304 1.79041 7.40991 1.48572 7.78491 1.26697C8.15991 1.04822 8.56616 0.938843 9.00366 0.938843C9.36304 0.938843 9.69116 1.00916 9.98804 1.14978C10.3005 1.29041 10.574 1.47791 10.8083 1.71228C11.3708 1.60291 11.8943 1.40759 12.3787 1.12634C12.1912 1.70447 11.8318 2.15759 11.3005 2.48572C11.7693 2.42322 12.238 2.29041 12.7068 2.08728C12.363 2.58728 11.949 3.01697 11.4646 3.37634Z" fill="#FF6194"/>
</svg>
