<svg width="14" height="10" viewBox="0 0 14 10" fill="none" xmlns="http://www.w3.org/2000/svg">
<path d="M13.1262 1.51086C13.0481 1.22961 12.9075 0.987427 12.7043 0.784302C12.5012 0.581177 12.259 0.440552 11.9778 0.362427C11.5715 0.253052 10.6184 0.174927 9.11841 0.128052L6.9856 0.104614L4.85278 0.128052C3.35278 0.174927 2.39966 0.253052 1.99341 0.362427C1.71216 0.440552 1.46997 0.581177 1.26685 0.784302C1.06372 0.987427 0.923096 1.22961 0.844971 1.51086C0.735596 1.93274 0.657471 2.57336 0.610596 3.43274C0.594971 3.87024 0.587158 4.26086 0.587158 4.60461L0.610596 5.77649C0.657471 6.65149 0.735596 7.29993 0.844971 7.7218C0.923096 7.98743 1.06372 8.2218 1.26685 8.42493C1.46997 8.62805 1.71216 8.76868 1.99341 8.8468C2.39966 8.95618 3.35278 9.0343 4.85278 9.08118L6.9856 9.10461L9.11841 9.08118C10.6184 9.0343 11.5715 8.95618 11.9778 8.8468C12.259 8.76868 12.5012 8.62805 12.7043 8.42493C12.9075 8.2218 13.0481 7.98743 13.1262 7.7218C13.2356 7.29993 13.3137 6.65149 13.3606 5.77649L13.384 4.60461L13.3606 3.43274C13.3137 2.57336 13.2356 1.93274 13.1262 1.51086ZM5.6731 6.52649V2.70618L9.02466 4.60461L5.6731 6.52649Z" fill="#fff2d8"/>
</svg>
